# xmcd
#
# Track frame offsets:
#	182
#	12742
#	25162
#	37022
#	53115
#	65892
#	77857
#	89017
#	105995
#	115897
#	131257
#	145215
#
# Disc length: 2161 seconds
#
# Revision: 1887595302
# Processed by: cddbd v1.5.2PL0 Copyright (c) Steve Scherf et al.
# Submitted via: EZCDAudioConverter 9.0.2.1
#
DISCID=a7086f0c
DTITLE=Mandy Barnett - I've Got A Right To Cry
DYEAR=2006
DGENRE=Country
TTITLE0=I've Got A Right To Cry
TTITLE1=Give Myself A Party
TTITLE2=Who (Who Will It Be)
TTITLE3=The Whispering Wind (Blows On By)
TTITLE4=Trademark
TTITLE5=Funny, Familiar, Forgotten Feelings
TTITLE6=Falling, Falling, Falling
TTITLE7=With My Eyes Wide Open I'm Dreaming
TTITLE8=I'm Gonna Change Everything
TTITLE9=Mistakes
TTITLE10=Ever True Evermore
TTITLE11=Don't Forget To Cry
EXTD=
EXTT0=
EXTT1=
EXTT2=
EXTT3=
EXTT4=
EXTT5=
EXTT6=
EXTT7=
EXTT8=
EXTT9=
EXTT10=
EXTT11=
PLAYORDER=
